<mxfile host="app.diagrams.net" modified="2022-11-01T09:59:46.406Z" agent="5.0 (Windows NT 10.0; Win64; x64) AppleWebKit/537.36 (KHTML, like Gecko) Chrome/107.0.0.0 Safari/537.36 Edg/107.0.1418.26" etag="Pi761qWdevSOLDp5Aw9b" version="20.5.1" type="github">
  <diagram id="IboxONmjz969cbpa-Z4T" name="第 1 页">
    <mxGraphModel dx="1550" dy="859" grid="1" gridSize="10" guides="1" tooltips="1" connect="1" arrows="1" fold="1" page="1" pageScale="1" pageWidth="827" pageHeight="1169" math="0" shadow="0">
      <root>
        <mxCell id="0" />
        <mxCell id="1" parent="0" />
        <mxCell id="_Vk2DpKHZ6NKGGIlkO47-1" value="命令模式是将一段代码（该代码可以视作一个命令）抽离成一个单独的类，避免了调用方和接收方直接耦合的一种模式。由于将执行的逻辑变成了单独的对象，因此使用命令模式可以实现作为其他方法的参数，命令延后执行，通过序列化网络传递命令，命令撤回等功能。" style="shape=note;whiteSpace=wrap;html=1;backgroundOutline=1;darkOpacity=0.05;" vertex="1" parent="1">
          <mxGeometry x="129" y="50" width="570" height="100" as="geometry" />
        </mxCell>
        <mxCell id="_Vk2DpKHZ6NKGGIlkO47-2" value="ConcreteCommand" style="swimlane;fontStyle=1;align=center;verticalAlign=top;childLayout=stackLayout;horizontal=1;startSize=26;horizontalStack=0;resizeParent=1;resizeParentMax=0;resizeLast=0;collapsible=1;marginBottom=0;" vertex="1" parent="1">
          <mxGeometry x="462" y="482" width="190" height="138" as="geometry" />
        </mxCell>
        <mxCell id="_Vk2DpKHZ6NKGGIlkO47-3" value="- r: Receiver" style="text;strokeColor=none;fillColor=none;align=left;verticalAlign=top;spacingLeft=4;spacingRight=4;overflow=hidden;rotatable=0;points=[[0,0.5],[1,0.5]];portConstraint=eastwest;" vertex="1" parent="_Vk2DpKHZ6NKGGIlkO47-2">
          <mxGeometry y="26" width="190" height="26" as="geometry" />
        </mxCell>
        <mxCell id="_Vk2DpKHZ6NKGGIlkO47-22" value="- params" style="text;strokeColor=none;fillColor=none;align=left;verticalAlign=top;spacingLeft=4;spacingRight=4;overflow=hidden;rotatable=0;points=[[0,0.5],[1,0.5]];portConstraint=eastwest;" vertex="1" parent="_Vk2DpKHZ6NKGGIlkO47-2">
          <mxGeometry y="52" width="190" height="26" as="geometry" />
        </mxCell>
        <mxCell id="_Vk2DpKHZ6NKGGIlkO47-4" value="" style="line;strokeWidth=1;fillColor=none;align=left;verticalAlign=middle;spacingTop=-1;spacingLeft=3;spacingRight=3;rotatable=0;labelPosition=right;points=[];portConstraint=eastwest;strokeColor=inherit;" vertex="1" parent="_Vk2DpKHZ6NKGGIlkO47-2">
          <mxGeometry y="78" width="190" height="8" as="geometry" />
        </mxCell>
        <mxCell id="_Vk2DpKHZ6NKGGIlkO47-5" value="+ ConcreteCommand(r, params)" style="text;strokeColor=none;fillColor=none;align=left;verticalAlign=top;spacingLeft=4;spacingRight=4;overflow=hidden;rotatable=0;points=[[0,0.5],[1,0.5]];portConstraint=eastwest;" vertex="1" parent="_Vk2DpKHZ6NKGGIlkO47-2">
          <mxGeometry y="86" width="190" height="26" as="geometry" />
        </mxCell>
        <mxCell id="_Vk2DpKHZ6NKGGIlkO47-23" value="+ execute()" style="text;strokeColor=none;fillColor=none;align=left;verticalAlign=top;spacingLeft=4;spacingRight=4;overflow=hidden;rotatable=0;points=[[0,0.5],[1,0.5]];portConstraint=eastwest;" vertex="1" parent="_Vk2DpKHZ6NKGGIlkO47-2">
          <mxGeometry y="112" width="190" height="26" as="geometry" />
        </mxCell>
        <mxCell id="_Vk2DpKHZ6NKGGIlkO47-6" value="&lt;p style=&quot;margin:0px;margin-top:4px;text-align:center;&quot;&gt;&lt;i&gt;&amp;lt;&amp;lt;Interface&amp;gt;&amp;gt;&lt;/i&gt;&lt;br&gt;&lt;b&gt;Command&lt;/b&gt;&lt;/p&gt;&lt;br&gt;&lt;hr size=&quot;1&quot;&gt;&lt;p style=&quot;margin:0px;margin-left:4px;&quot;&gt;+ execute()&lt;br&gt;&lt;/p&gt;" style="verticalAlign=top;align=left;overflow=fill;fontSize=12;fontFamily=Helvetica;html=1;" vertex="1" parent="1">
          <mxGeometry x="461" y="332" width="190" height="90" as="geometry" />
        </mxCell>
        <mxCell id="_Vk2DpKHZ6NKGGIlkO47-7" value="" style="endArrow=block;dashed=1;endFill=0;endSize=12;html=1;rounded=0;exitX=0.5;exitY=0;exitDx=0;exitDy=0;entryX=0.5;entryY=1;entryDx=0;entryDy=0;" edge="1" parent="1" source="_Vk2DpKHZ6NKGGIlkO47-2" target="_Vk2DpKHZ6NKGGIlkO47-6">
          <mxGeometry width="160" relative="1" as="geometry">
            <mxPoint x="556" y="452" as="sourcePoint" />
            <mxPoint x="716" y="452" as="targetPoint" />
          </mxGeometry>
        </mxCell>
        <mxCell id="_Vk2DpKHZ6NKGGIlkO47-8" value="Receiver" style="swimlane;fontStyle=1;align=center;verticalAlign=top;childLayout=stackLayout;horizontal=1;startSize=26;horizontalStack=0;resizeParent=1;resizeParentMax=0;resizeLast=0;collapsible=1;marginBottom=0;" vertex="1" parent="1">
          <mxGeometry x="176" y="517" width="160" height="86" as="geometry" />
        </mxCell>
        <mxCell id="_Vk2DpKHZ6NKGGIlkO47-9" value="...." style="text;strokeColor=none;fillColor=none;align=left;verticalAlign=top;spacingLeft=4;spacingRight=4;overflow=hidden;rotatable=0;points=[[0,0.5],[1,0.5]];portConstraint=eastwest;" vertex="1" parent="_Vk2DpKHZ6NKGGIlkO47-8">
          <mxGeometry y="26" width="160" height="26" as="geometry" />
        </mxCell>
        <mxCell id="_Vk2DpKHZ6NKGGIlkO47-10" value="" style="line;strokeWidth=1;fillColor=none;align=left;verticalAlign=middle;spacingTop=-1;spacingLeft=3;spacingRight=3;rotatable=0;labelPosition=right;points=[];portConstraint=eastwest;strokeColor=inherit;" vertex="1" parent="_Vk2DpKHZ6NKGGIlkO47-8">
          <mxGeometry y="52" width="160" height="8" as="geometry" />
        </mxCell>
        <mxCell id="_Vk2DpKHZ6NKGGIlkO47-11" value="+ operation(a, b, c)" style="text;strokeColor=none;fillColor=none;align=left;verticalAlign=top;spacingLeft=4;spacingRight=4;overflow=hidden;rotatable=0;points=[[0,0.5],[1,0.5]];portConstraint=eastwest;" vertex="1" parent="_Vk2DpKHZ6NKGGIlkO47-8">
          <mxGeometry y="60" width="160" height="26" as="geometry" />
        </mxCell>
        <mxCell id="_Vk2DpKHZ6NKGGIlkO47-12" value="" style="endArrow=open;endFill=1;endSize=12;html=1;rounded=0;exitX=0;exitY=0.5;exitDx=0;exitDy=0;entryX=0.998;entryY=0.138;entryDx=0;entryDy=0;entryPerimeter=0;" edge="1" parent="1" source="_Vk2DpKHZ6NKGGIlkO47-22" target="_Vk2DpKHZ6NKGGIlkO47-9">
          <mxGeometry width="160" relative="1" as="geometry">
            <mxPoint x="336" y="522" as="sourcePoint" />
            <mxPoint x="336" y="610" as="targetPoint" />
          </mxGeometry>
        </mxCell>
        <mxCell id="_Vk2DpKHZ6NKGGIlkO47-13" value="Invoker" style="swimlane;fontStyle=1;align=center;verticalAlign=top;childLayout=stackLayout;horizontal=1;startSize=26;horizontalStack=0;resizeParent=1;resizeParentMax=0;resizeLast=0;collapsible=1;marginBottom=0;" vertex="1" parent="1">
          <mxGeometry x="178" y="330" width="180" height="112" as="geometry" />
        </mxCell>
        <mxCell id="_Vk2DpKHZ6NKGGIlkO47-14" value="- command: Command" style="text;strokeColor=none;fillColor=none;align=left;verticalAlign=top;spacingLeft=4;spacingRight=4;overflow=hidden;rotatable=0;points=[[0,0.5],[1,0.5]];portConstraint=eastwest;" vertex="1" parent="_Vk2DpKHZ6NKGGIlkO47-13">
          <mxGeometry y="26" width="180" height="26" as="geometry" />
        </mxCell>
        <mxCell id="_Vk2DpKHZ6NKGGIlkO47-15" value="" style="line;strokeWidth=1;fillColor=none;align=left;verticalAlign=middle;spacingTop=-1;spacingLeft=3;spacingRight=3;rotatable=0;labelPosition=right;points=[];portConstraint=eastwest;strokeColor=inherit;" vertex="1" parent="_Vk2DpKHZ6NKGGIlkO47-13">
          <mxGeometry y="52" width="180" height="8" as="geometry" />
        </mxCell>
        <mxCell id="_Vk2DpKHZ6NKGGIlkO47-27" value="+ setCommand(c: Command)" style="text;strokeColor=none;fillColor=none;align=left;verticalAlign=top;spacingLeft=4;spacingRight=4;overflow=hidden;rotatable=0;points=[[0,0.5],[1,0.5]];portConstraint=eastwest;" vertex="1" parent="_Vk2DpKHZ6NKGGIlkO47-13">
          <mxGeometry y="60" width="180" height="26" as="geometry" />
        </mxCell>
        <mxCell id="_Vk2DpKHZ6NKGGIlkO47-16" value="+ executeCommand()" style="text;strokeColor=none;fillColor=none;align=left;verticalAlign=top;spacingLeft=4;spacingRight=4;overflow=hidden;rotatable=0;points=[[0,0.5],[1,0.5]];portConstraint=eastwest;" vertex="1" parent="_Vk2DpKHZ6NKGGIlkO47-13">
          <mxGeometry y="86" width="180" height="26" as="geometry" />
        </mxCell>
        <mxCell id="_Vk2DpKHZ6NKGGIlkO47-17" value="" style="endArrow=open;endFill=1;endSize=12;html=1;rounded=0;entryX=0.003;entryY=0.429;entryDx=0;entryDy=0;entryPerimeter=0;" edge="1" parent="1" source="_Vk2DpKHZ6NKGGIlkO47-14" target="_Vk2DpKHZ6NKGGIlkO47-6">
          <mxGeometry width="160" relative="1" as="geometry">
            <mxPoint x="346" y="371" as="sourcePoint" />
            <mxPoint x="506" y="371" as="targetPoint" />
          </mxGeometry>
        </mxCell>
        <mxCell id="_Vk2DpKHZ6NKGGIlkO47-18" value="Client" style="html=1;fontStyle=1" vertex="1" parent="1">
          <mxGeometry x="211" y="210" width="110" height="50" as="geometry" />
        </mxCell>
        <mxCell id="_Vk2DpKHZ6NKGGIlkO47-19" value="" style="endArrow=open;endFill=1;endSize=12;html=1;rounded=0;exitX=0.5;exitY=1;exitDx=0;exitDy=0;entryX=0.5;entryY=0;entryDx=0;entryDy=0;" edge="1" parent="1" source="_Vk2DpKHZ6NKGGIlkO47-18" target="_Vk2DpKHZ6NKGGIlkO47-13">
          <mxGeometry width="160" relative="1" as="geometry">
            <mxPoint x="380" y="250" as="sourcePoint" />
            <mxPoint x="540" y="250" as="targetPoint" />
          </mxGeometry>
        </mxCell>
        <mxCell id="_Vk2DpKHZ6NKGGIlkO47-21" value="r.operation(params)" style="shape=note;whiteSpace=wrap;html=1;backgroundOutline=1;darkOpacity=0.05;align=left;fillColor=#6d8764;fontColor=#ffffff;strokeColor=#3A5431;" vertex="1" parent="1">
          <mxGeometry x="370" y="650" width="150" height="50" as="geometry" />
        </mxCell>
        <mxCell id="_Vk2DpKHZ6NKGGIlkO47-24" value="" style="endArrow=none;dashed=1;html=1;dashPattern=1 3;strokeWidth=2;rounded=0;" edge="1" parent="1">
          <mxGeometry width="50" height="50" relative="1" as="geometry">
            <mxPoint x="430" y="653" as="sourcePoint" />
            <mxPoint x="480" y="603" as="targetPoint" />
          </mxGeometry>
        </mxCell>
        <mxCell id="_Vk2DpKHZ6NKGGIlkO47-25" value="Use" style="endArrow=open;endSize=12;dashed=1;html=1;rounded=0;exitX=1;exitY=0.75;exitDx=0;exitDy=0;" edge="1" parent="1" source="_Vk2DpKHZ6NKGGIlkO47-18" target="_Vk2DpKHZ6NKGGIlkO47-2">
          <mxGeometry width="160" relative="1" as="geometry">
            <mxPoint x="370" y="270" as="sourcePoint" />
            <mxPoint x="530" y="270" as="targetPoint" />
          </mxGeometry>
        </mxCell>
        <mxCell id="_Vk2DpKHZ6NKGGIlkO47-26" value="" style="endArrow=open;endFill=1;endSize=12;html=1;rounded=0;entryX=0;entryY=0.5;entryDx=0;entryDy=0;exitX=0;exitY=0.5;exitDx=0;exitDy=0;" edge="1" parent="1" source="_Vk2DpKHZ6NKGGIlkO47-18" target="_Vk2DpKHZ6NKGGIlkO47-9">
          <mxGeometry width="160" relative="1" as="geometry">
            <mxPoint x="20" y="460" as="sourcePoint" />
            <mxPoint x="180" y="460" as="targetPoint" />
            <Array as="points">
              <mxPoint x="120" y="235" />
              <mxPoint x="120" y="556" />
            </Array>
          </mxGeometry>
        </mxCell>
      </root>
    </mxGraphModel>
  </diagram>
</mxfile>
